<svg width="144" height="144" viewBox="0 0 144 144" fill="none" xmlns="http://www.w3.org/2000/svg">
<path d="M123.196 72.5135C130.147 70.1585 133.995 63.3639 133.995 56.1325C133.995 47.2168 126.86 35 110.817 35C77.0808 35 72.3923 96.9056 39.9755 96.9056V109.975C80.8775 109.975 87.3853 48.7296 108.453 48.7296C114.344 48.7296 118.635 53.9803 117.295 59.5532C116.214 64.0345 112.443 65.8904 108.397 66.5922C105.548 67.0861 103.433 69.5451 103.433 72.4927V72.5967C103.433 75.3883 105.309 77.8473 107.979 78.4608C111.505 79.2717 116.011 81.1901 117.295 85.5673C118.727 90.4385 114.854 95.7619 108.453 95.7619C102.052 95.7619 97.7356 94.0619 93.144 88.6137C91.238 86.3575 88.114 85.6297 85.4436 86.841C81.2444 88.7385 80.2048 94.2907 83.3593 97.6906C91.1717 106.118 101.537 109.84 109.141 109.84C122.233 109.84 134 102.057 134 88.8997C134 83.0616 130.53 75.5807 123.196 72.5187V72.5135Z" fill="url(#paint0_linear_58_2)"/>
<path d="M25.4415 80.1188C25.4415 60.7382 46.2339 56.8444 52.5022 71.9725C53.7966 75.1021 57.2926 76.6305 60.4267 75.4816C63.8972 74.2079 65.5688 70.179 64.0399 66.7531C52.2117 40.2035 9.95926 46.6551 10 80.1656C10.0204 96.323 22.7863 109.595 38.6151 109.975C39.0839 109.985 39.5273 109.985 39.9757 109.975V96.9052C33.5495 96.9052 25.4415 91.1139 25.4415 80.1188Z" fill="#181B33"/>
<defs>
<linearGradient id="paint0_linear_58_2" x1="38.1643" y1="103.078" x2="72.5782" y2="85.2022" gradientUnits="userSpaceOnUse">
<stop stop-color="#181A34"/>
<stop offset="1" stop-color="#6A1FD4"/>
</linearGradient>
</defs>
</svg>
